<svg width="346" height="43" viewBox="0 0 346 43" fill="none" xmlns="http://www.w3.org/2000/svg">
<path d="M17.9293 42.3067C15.2904 42.3067 13.0783 41.8798 11.2931 41.0261C9.54678 40.1723 8.13028 39.008 7.04366 37.5333C5.99584 36.0198 5.23909 34.2929 4.77339 32.3525C4.30769 30.4121 4.03604 28.3746 3.95842 26.2402C3.95842 25.1924 3.93902 24.1252 3.90021 23.0385C3.90021 21.9519 3.90021 20.8653 3.90021 19.7787C3.93902 18.6532 3.95842 17.5472 3.95842 16.4606C3.99723 14.3261 4.24948 12.2887 4.71518 10.3483C5.21968 8.40791 5.99584 6.70035 7.04366 5.22565C8.13028 3.71214 9.54678 2.52849 11.2931 1.67471C13.0783 0.820937 15.2904 0.394048 17.9293 0.394048C20.5683 0.394048 22.7609 0.820937 24.5073 1.67471C26.2924 2.52849 27.7089 3.71214 28.7568 5.22565C29.8434 6.70035 30.6195 8.40791 31.0852 10.3483C31.5897 12.2887 31.8614 14.3261 31.9002 16.4606C31.939 17.5472 31.9584 18.6532 31.9584 19.7787C31.9584 20.8653 31.9584 21.9519 31.9584 23.0385C31.9584 24.1252 31.939 25.1924 31.9002 26.2402C31.8614 28.3746 31.5897 30.4121 31.0852 32.3525C30.6195 34.2929 29.8434 36.0198 28.7568 37.5333C27.7089 39.008 26.2924 40.1723 24.5073 41.0261C22.7609 41.8798 20.5683 42.3067 17.9293 42.3067ZM17.9293 38.814C21.3832 38.814 23.9446 37.6692 25.6133 35.3795C27.2821 33.0898 28.1552 29.9464 28.2328 25.9491C28.2717 24.8237 28.2911 23.7759 28.2911 22.8057C28.2911 21.7967 28.2911 20.8071 28.2911 19.8369C28.2911 18.8279 28.2717 17.7995 28.2328 16.7516C28.1552 12.832 27.2821 9.70798 25.6133 7.37949C23.9446 5.05101 21.3832 3.88677 17.9293 3.88677C14.5142 3.88677 11.9529 5.05101 10.2453 7.37949C8.57658 9.70798 7.7034 12.832 7.62578 16.7516C7.62578 17.7995 7.60638 18.8279 7.56757 19.8369C7.56757 20.8071 7.56757 21.7967 7.56757 22.8057C7.60638 23.7759 7.62578 24.8237 7.62578 25.9491C7.7034 29.9464 8.57658 33.0898 10.2453 35.3795C11.9529 37.6692 14.5142 38.814 17.9293 38.814ZM51.9374 41.7246C51.5494 41.7246 51.2389 41.6082 51.006 41.3753C50.7732 41.1425 50.6568 40.832 50.6568 40.4439V5.74956L40.2368 13.7828C39.9263 14.0157 39.5965 14.1127 39.2472 14.0739C38.9367 14.0351 38.6651 13.8604 38.4322 13.55L37.7919 12.735C37.5591 12.4245 37.462 12.1141 37.5008 11.8036C37.5397 11.4543 37.7143 11.1633 38.0248 10.9304L50.4239 1.38365C50.6956 1.18961 50.9478 1.07319 51.1807 1.03438C51.4135 0.995572 51.6658 0.976168 51.9374 0.976168H53.0435C53.4315 0.976168 53.742 1.09259 53.9749 1.32544C54.2077 1.55829 54.3241 1.86875 54.3241 2.25683V40.4439C54.3241 40.832 54.2077 41.1425 53.9749 41.3753C53.742 41.6082 53.4315 41.7246 53.0435 41.7246H51.9374Z" fill="#65D80D"/>
<line x1="78.5859" y1="40.5025" x2="345.391" y2="40.5025" stroke="#65D80D" stroke-width="1.9404"/>
</svg>
