<svg width="654" height="434" viewBox="0 0 654 434" fill="none" xmlns="http://www.w3.org/2000/svg">
<rect x="6.13125" y="6.49356" width="641.737" height="421.012" rx="10.2188" fill="white" stroke="#373737" stroke-width="12.2625"/>
<g opacity="0.7">
<path d="M327.001 268.502C355.445 268.502 378.503 245.444 378.503 217C378.503 188.556 355.445 165.497 327.001 165.497C298.557 165.497 275.498 188.556 275.498 217C275.498 245.444 298.557 268.502 327.001 268.502Z" fill="#BFFB4F"/>
<path d="M316.406 197.327C315.722 197.327 315.041 197.515 314.432 197.887C313.297 198.581 312.619 199.789 312.619 201.12V232.879C312.619 234.21 313.297 235.418 314.432 236.112C315.567 236.805 316.951 236.857 318.135 236.251L349.13 220.371C350.42 219.71 351.191 218.45 351.191 217C351.191 215.549 350.42 214.289 349.13 213.628L318.135 197.748C317.587 197.467 316.995 197.327 316.406 197.327Z" fill="white"/>
</g>
</svg>
