<svg width="356" height="44" viewBox="0 0 356 44" fill="none" xmlns="http://www.w3.org/2000/svg">
<path d="M18.48 43.6C15.76 43.6 13.48 43.16 11.64 42.28C9.84 41.4 8.38 40.2 7.26 38.68C6.18 37.12 5.4 35.34 4.92 33.34C4.44 31.34 4.16 29.24 4.08 27.04C4.08 25.96 4.06 24.86 4.02 23.74C4.02 22.62 4.02 21.5 4.02 20.38C4.06 19.22 4.08 18.08 4.08 16.96C4.12 14.76 4.38 12.66 4.86 10.66C5.38 8.66 6.18 6.9 7.26 5.38C8.38 3.82 9.84 2.6 11.64 1.72C13.48 0.839998 15.76 0.399998 18.48 0.399998C21.2 0.399998 23.46 0.839998 25.26 1.72C27.1 2.6 28.56 3.82 29.64 5.38C30.76 6.9 31.56 8.66 32.04 10.66C32.56 12.66 32.84 14.76 32.88 16.96C32.92 18.08 32.94 19.22 32.94 20.38C32.94 21.5 32.94 22.62 32.94 23.74C32.94 24.86 32.92 25.96 32.88 27.04C32.84 29.24 32.56 31.34 32.04 33.34C31.56 35.34 30.76 37.12 29.64 38.68C28.56 40.2 27.1 41.4 25.26 42.28C23.46 43.16 21.2 43.6 18.48 43.6ZM18.48 40C22.04 40 24.68 38.82 26.4 36.46C28.12 34.1 29.02 30.86 29.1 26.74C29.14 25.58 29.16 24.5 29.16 23.5C29.16 22.46 29.16 21.44 29.16 20.44C29.16 19.4 29.14 18.34 29.1 17.26C29.02 13.22 28.12 10 26.4 7.6C24.68 5.2 22.04 4 18.48 4C14.96 4 12.32 5.2 10.56 7.6C8.84 10 7.94 13.22 7.86 17.26C7.86 18.34 7.84 19.4 7.8 20.44C7.8 21.44 7.8 22.46 7.8 23.5C7.84 24.5 7.86 25.58 7.86 26.74C7.94 30.86 8.84 34.1 10.56 36.46C12.32 38.82 14.96 40 18.48 40ZM54.1327 43.6C51.8927 43.6 49.8927 43.32 48.1327 42.76C46.3727 42.16 44.8727 41.38 43.6327 40.42C42.4327 39.46 41.4927 38.38 40.8127 37.18C40.1727 35.94 39.8327 34.66 39.7927 33.34C39.7927 32.98 39.9127 32.7 40.1527 32.5C40.3927 32.3 40.6927 32.2 41.0527 32.2H41.8927C42.2127 32.2 42.5127 32.28 42.7927 32.44C43.1127 32.6 43.3527 32.98 43.5127 33.58C43.9527 35.3 44.7327 36.64 45.8527 37.6C47.0127 38.52 48.3127 39.16 49.7527 39.52C51.2327 39.84 52.6927 40 54.1327 40C57.2127 40 59.7327 39.26 61.6927 37.78C63.6927 36.3 64.6927 34.08 64.6927 31.12C64.6927 28.16 63.7927 26.04 61.9927 24.76C60.2327 23.48 57.8127 22.84 54.7327 22.84H49.4527C49.0527 22.84 48.7327 22.72 48.4927 22.48C48.2527 22.24 48.1327 21.92 48.1327 21.52V20.62C48.1327 20.3 48.1727 20.04 48.2527 19.84C48.3727 19.6 48.5127 19.38 48.6727 19.18L61.0327 4.6H42.9127C42.5127 4.6 42.1927 4.48 41.9527 4.24C41.7127 4 41.5927 3.68 41.5927 3.28V2.38C41.5927 1.94 41.7127 1.6 41.9527 1.36C42.1927 1.12 42.5127 0.999997 42.9127 0.999997H65.2927C65.7327 0.999997 66.0727 1.12 66.3127 1.36C66.5527 1.6 66.6727 1.94 66.6727 2.38V3.28C66.6727 3.52 66.6127 3.74 66.4927 3.94C66.4127 4.1 66.3127 4.26 66.1927 4.42L53.5327 19.24H54.7327C57.4927 19.24 59.8927 19.68 61.9327 20.56C64.0127 21.4 65.6127 22.7 66.7327 24.46C67.8927 26.22 68.4727 28.44 68.4727 31.12C68.4727 33.76 67.8527 36.02 66.6127 37.9C65.3727 39.74 63.6727 41.16 61.5127 42.16C59.3527 43.12 56.8927 43.6 54.1327 43.6Z" fill="#BFFB4F"/>
<line x1="81" y1="42" x2="356" y2="42" stroke="#BFFB4F" stroke-width="2"/>
</svg>
