<svg width="620" height="264" viewBox="0 0 620 264" fill="none" xmlns="http://www.w3.org/2000/svg">
<g clip-path="url(#clip0_12_1468)">
<path d="M619.999 21.0885V242.61C619.996 246.001 619.144 249.338 617.521 252.316C616.432 254.314 615.014 256.113 613.326 257.639C613.201 257.755 613.075 257.863 612.95 257.961C611.419 259.301 609.69 260.396 607.824 261.208C606.997 261.575 606.145 261.883 605.274 262.13C604.702 262.291 604.111 262.434 603.521 262.541C602.721 262.7 601.911 262.805 601.097 262.854C600.64 262.89 600.175 262.908 599.701 262.908H394.963L384.719 263.463L375.04 262.908H20.3395C19.928 262.908 19.5075 262.899 19.105 262.863C17.9965 262.801 16.8953 262.645 15.8128 262.398C11.3313 261.374 7.33027 258.858 4.46499 255.263C1.5997 251.668 0.0399088 247.207 0.0410162 242.61V21.0885C0.0474983 15.707 2.18818 10.5478 5.99348 6.74249C9.79878 2.93719 14.958 0.796521 20.3395 0.790039H599.701C605.082 0.796521 610.242 2.93719 614.047 6.74249C617.852 10.5478 619.993 15.707 619.999 21.0885Z" fill="#F2F2F2"/>
<path d="M144.822 0.790039C113.075 74.8398 119.163 164.767 144.822 262.908H322.928C345.201 164.655 356.476 71.7753 322.928 0.790039H144.822Z" fill="#E4E4E4"/>
<path d="M72.9856 0.790039C14.9761 72.1792 31.1602 164.011 72.9856 262.908H144.822C118.916 169.478 114.68 81.1153 144.822 0.790039H72.9856Z" fill="#CACACA"/>
<path d="M290.002 6.86719H263.062V33.8071H290.002V6.86719Z" fill="white"/>
<path d="M246.6 6.86719H219.66V33.8071H246.6V6.86719Z" fill="white"/>
<path d="M203.196 6.86719H176.256V33.8071H203.196V6.86719Z" fill="white"/>
<path d="M289.254 68.2295H262.314V95.1694H289.254V68.2295Z" fill="white"/>
<path d="M245.85 68.2295H218.91V95.1694H245.85V68.2295Z" fill="white"/>
<path d="M202.448 68.2295H175.508V95.1694H202.448V68.2295Z" fill="white"/>
<path d="M288.506 129.593H261.566V156.533H288.506V129.593Z" fill="white"/>
<path d="M245.102 129.593H218.162V156.533H245.102V129.593Z" fill="white"/>
<path d="M201.7 129.593H174.76V156.533H201.7V129.593Z" fill="white"/>
<path d="M287.758 190.956H260.818V217.896H287.758V190.956Z" fill="white"/>
<path d="M244.356 190.956H217.416V217.896H244.356V190.956Z" fill="white"/>
<path d="M200.952 190.956H174.012V217.896H200.952V190.956Z" fill="white"/>
<path d="M287.01 252.316H260.064V262.909H287.01V252.316Z" fill="white"/>
<path d="M243.604 252.316H216.668V262.909H243.604V252.316Z" fill="white"/>
<path d="M200.198 252.316H173.262V262.909H200.198V252.316Z" fill="white"/>
<path d="M0.0410162 140.018V242.611C0.0399088 247.208 1.5997 251.669 4.46499 255.264C7.33027 258.859 11.3313 261.375 15.8128 262.399C16.8953 262.646 17.9965 262.802 19.105 262.864C19.5075 262.9 19.928 262.909 20.3395 262.909H98.4292C114.824 214.896 144.966 8.84249 21.5114 26.7345L0.0410162 140.018Z" fill="#E4E4E4"/>
<path d="M63.2582 190.956H36.3184V217.896H63.2582V190.956Z" fill="white"/>
<path d="M19.8564 190.956H0.0410156V217.892H19.8564V190.956Z" fill="white"/>
<path d="M62.5107 252.316H35.5742V262.909H62.5107V252.316Z" fill="white"/>
<path d="M2.50977 252.316C3.89138 254.84 5.79075 257.042 8.08332 258.78C10.3759 260.517 13.0099 261.75 15.8125 262.399C16.8949 262.645 17.9962 262.801 19.1046 262.864V252.316H2.50977Z" fill="white"/>
<path d="M619.999 168.796V242.61C619.995 246.001 619.143 249.338 617.521 252.316L616.125 251.144L613.432 248.89L598.528 236.428L602.232 251.69L597.875 251.923L597.535 251.941L589.627 252.37L582.712 252.746H582.685L572.817 253.282L563.182 253.801L559.971 253.971L539.511 255.081L530.789 255.555L526.835 255.77L516.377 256.333L502.35 257.093L499.746 257.237L458.577 259.464L432.392 260.887L428.33 261.101L428.026 261.119L426.371 261.209H426.362L422.775 261.405L417.622 261.683L409.275 262.13L405.59 262.327L394.962 262.908L384.719 263.463L375.039 262.908L343.826 261.119L323.59 259.956L322.928 259.92L287.01 257.863L260.065 256.315L243.604 255.376L216.668 253.828L204.251 253.121L200.198 252.889L190.232 252.316L144.822 249.713L141.441 249.516L141.253 249.507L124.801 248.568L114.531 247.978L136.109 227.93L136.404 227.652L144.822 219.833C150.879 208.964 156.694 197.987 174.013 192.709L175.901 190.956L201.907 166.792L206.344 166.73L322.929 165.191L340.534 164.959L376.605 164.484L389.675 164.314L399.327 164.878L482.955 169.78L488.403 170.103L516.207 171.731L541.936 173.234L554.165 173.949L557.153 174.128L557.35 174.137L558.853 174.227L562.878 173.869L567.826 173.43L569.659 173.269L570.5 173.189L588.115 171.632L589.591 171.498L593.805 171.122L618.209 204.759L619.999 168.796Z" fill="#3F3D56"/>
<path d="M525.57 248.584C513.176 230.642 504.143 185.088 507.678 166.28C507.523 165.667 514.917 175.984 514.941 175.344C515.059 172.185 517.31 169.737 519.969 169.876L553.391 171.628C554.218 171.699 555.012 171.986 555.693 172.46C556.375 172.934 556.92 173.579 557.274 174.33L582.543 222.721C582.942 223.495 583.181 224.341 583.246 225.209C583.493 228.358 581.544 231.148 578.893 231.441L534.083 236.389C533.935 236.406 533.787 236.414 533.639 236.414C531.51 236.408 526.185 251.004 525.57 248.584Z" fill="white"/>
<path d="M383.301 248.416L383.63 250.196L384.901 257.049C385.158 258.442 385.556 259.806 386.088 261.119C386.247 261.531 386.427 261.933 386.618 262.327C386.714 262.524 386.809 262.712 386.915 262.908H478.671L493.9 261.146L494.091 261.119C497.23 260.688 500.147 259.257 502.41 257.04C504.288 255.17 505.778 252.948 506.794 250.501C507.811 248.054 508.334 245.43 508.334 242.78C508.355 242.04 508.334 241.299 508.271 240.561C508.188 239.516 508.025 238.478 507.783 237.457C509.497 218 504.981 199.031 494.589 180.525C493.737 176.569 491.651 172.985 488.633 170.29C486.153 168.095 482.997 166.814 479.688 166.658L405.62 163.617C402.799 163.526 400.016 164.283 397.629 165.791C393.093 168.6 389.798 173.896 389.151 180.265C382.916 200.287 380.835 221.371 383.036 242.225C382.832 244.291 382.922 246.375 383.301 248.416Z" fill="white"/>
<path d="M356.184 257.538L165.873 252C163.481 251.93 128.096 265.893 126.379 263.721C122.617 258.966 122.525 251.136 126.174 246.233L209.311 163.786C210.073 162.67 211.086 161.749 212.269 161.097C213.452 160.444 214.772 160.079 216.122 160.029H369.315C370.039 160.03 370.76 160.137 371.453 160.348C376.559 161.887 379.74 168.529 378.559 175.184L365.64 247.961C364.632 253.559 360.807 257.522 356.395 257.541C356.325 257.541 356.254 257.54 356.184 257.538Z" fill="white"/>
<path d="M555.136 177.329L393.395 166.174L201.908 166.794C225.463 141.886 328.993 111.518 439.872 148.203C550.798 151.921 558.855 174.23 558.855 174.23L560.238 176.399L555.136 177.329Z" fill="#BFFB4F"/>
<path d="M619.212 248.192C618.805 249.625 618.237 251.009 617.521 252.316C616.432 254.314 615.013 256.113 613.325 257.639C613.2 257.755 613.075 257.862 612.95 257.961C611.418 259.301 609.689 260.396 607.824 261.208C606.996 261.575 606.144 261.883 605.274 262.13C604.701 262.291 604.111 262.434 603.521 262.541C602.72 262.7 601.91 262.804 601.096 262.854C600.64 262.89 600.175 262.908 599.701 262.908H394.962L384.719 263.462L375.039 262.908H20.3392C19.9277 262.908 19.5072 262.899 19.1046 262.863C17.9962 262.8 16.8949 262.645 15.8125 262.398L19.1046 261.915L24.5617 261.119L35.5742 259.508L62.5107 255.572L72.9865 254.042L98.4289 250.33L102.678 249.712L114.532 247.977L124.99 248.183L140.994 248.505H141.191L144.823 248.576L169.147 249.059L178.084 249.238L243.641 250.535L249.634 250.652L258.571 250.831L287.029 251.403L322.929 252.11L325.327 252.155L363.767 252.924L364.269 252.933L383.878 251.546L403.067 250.196L417.605 249.176L422.292 248.845L422.471 248.836L423.509 248.764L424.189 248.711L429.896 248.308L451.251 246.805L460.76 246.134L464.857 245.848L469.143 245.544L508.335 242.779L519.249 242.01H519.258L525.225 241.59L536.166 240.82H536.175L547.42 240.024H547.429L551.795 239.72L553.468 239.604L566.207 238.709L573.909 238.163L587.131 237.233L591.22 236.947L596.713 236.553L598.216 236.446L598.529 236.428C598.529 236.428 603.127 236.526 609.121 239.854C611.019 240.911 612.813 242.146 614.479 243.54C615.634 244.499 616.733 245.524 617.772 246.608C618.255 247.109 618.729 247.637 619.212 248.192Z" fill="#BFFB4F"/>
<path d="M416.396 262.909H430.272L429.001 261.728L428.348 261.12L428.33 261.102L425.405 258.392L423.079 256.227L421.192 258.114L420.431 258.875L418.186 261.12L417.622 261.684L416.396 262.909Z" fill="#CACACA"/>
<path d="M492.41 262.908H513.746L517.03 261.119L526.834 255.769L529.142 254.508L547.419 240.024H547.428L552.017 236.392L554.397 234.504L557.34 232.17L571.878 220.656C572.28 220.337 572.654 219.984 572.996 219.6C573.787 218.704 574.388 217.655 574.76 216.518C575.132 215.381 575.269 214.181 575.161 212.989C575.155 212.887 575.14 212.785 575.116 212.685C574.957 211.374 574.503 210.116 573.789 209.005C573.075 207.895 572.119 206.96 570.992 206.271C569.404 205.297 567.547 204.852 565.69 205.002C563.833 205.152 562.071 205.887 560.659 207.103L549.996 216.094L545.737 219.681L529.25 233.583L519.257 242.01H519.248L517.343 243.62L499.746 257.236L494.718 261.119L492.41 262.908Z" fill="#FFB6B6"/>
<path d="M566.283 231.482C566.846 231.56 567.419 231.45 567.914 231.17C568.408 230.89 568.797 230.456 569.021 229.934C569.309 229.294 569.79 228.761 570.396 228.408C570.514 228.341 570.636 228.282 570.762 228.232C571.527 227.944 572.211 227.475 572.756 226.866C573.301 226.257 573.691 225.526 573.893 224.734C574.52 222.118 576.531 219.58 578.551 217.623C580.762 215.481 583.122 213.427 584.756 210.818C587.113 207.055 587.775 201.773 583.227 198.634C581.272 197.329 578.927 196.737 576.587 196.959C571.688 197.357 567.637 200.347 563.788 203.244L564.752 201.352C560.604 204.59 555.844 206.956 550.76 208.309C551.639 209.109 550.877 210.709 549.747 211.081C548.618 211.453 547.401 211.061 546.238 210.814C544.772 210.503 542.959 210.529 542.381 212.28C542.254 212.702 542.216 213.146 542.27 213.584C542.323 214.022 542.466 214.444 542.691 214.824C546.775 222.093 552.319 228.438 558.974 233.461C560.453 234.576 562.169 235.673 564.008 235.455C565.847 235.237 567.412 232.951 566.283 231.482Z" fill="#BFFB4F"/>
<path d="M562.227 246.287L563.184 253.802L564.114 261.12L564.213 261.898L564.347 262.909H599.701C600.176 262.909 600.641 262.891 601.097 262.855C601.911 262.805 602.721 262.701 603.521 262.542L603.924 260.637L604.156 259.5L589.369 254.84L582.713 252.746H582.695L573.078 249.705L562.227 246.287Z" fill="#FFB6B6"/>
<path d="M548.494 228.628C549.218 230.229 550.193 232.367 551.285 234.792C551.526 235.311 551.768 235.847 552.018 236.393C552.484 237.431 552.967 238.504 553.468 239.605C555.677 244.498 558.084 249.812 559.971 253.972C561.537 257.452 562.754 260.136 563.192 261.12C563.326 261.397 563.389 261.54 563.389 261.54L564.212 261.898L566.565 262.909H599.701C600.175 262.909 600.64 262.891 601.096 262.855C601.91 262.806 602.72 262.701 603.521 262.542C604.111 262.435 604.701 262.292 605.274 262.131C606.145 261.884 606.996 261.576 607.824 261.209C609.689 260.397 611.418 259.302 612.95 257.962C613.021 257.345 613.164 256.352 613.316 255.144C613.555 253.34 613.684 251.524 613.701 249.705C613.701 248.247 610.123 245.885 609.121 239.855C608.784 237.653 608.781 235.412 609.112 233.208C610.964 219.628 610.311 198.847 597.223 194.785L587.811 178.307H569.857L566.94 186.904V186.913L565.267 191.842L564.265 194.785L564.051 195.071L557.645 203.472C557.645 203.472 556.626 204.769 555.23 206.818V206.826C553.216 209.756 551.465 212.857 549.997 216.095C549.039 218.192 548.347 220.401 547.939 222.67C547.54 224.668 547.733 226.738 548.494 228.628Z" fill="#2F2E41"/>
<path d="M586.331 161.699C573.139 171.734 558.448 179.721 555.679 190.764C555.679 190.764 557.337 173.412 549.6 176.701C536.598 182.228 540.997 152.173 544.643 147.259C550.72 139.068 571.21 134.414 571.21 134.414L585.745 142.393L586.331 161.699Z" fill="#2F2E41"/>
<path d="M563.361 173.876C575.944 173.876 586.145 163.676 586.145 151.093C586.145 138.51 575.944 128.31 563.361 128.31C550.779 128.31 540.578 138.51 540.578 151.093C540.578 163.676 550.779 173.876 563.361 173.876Z" fill="#FFB6B6"/>
<path d="M571.565 142.375L572.442 146.226L557.116 149.715C557.103 148.936 556.928 148.169 556.604 147.46C556.279 146.752 555.812 146.119 555.232 145.6C555.562 147.109 555.524 148.677 555.121 150.169C546.856 154.807 547.331 156.45 540.651 155.267C540.203 155.369 539.739 155.382 539.286 155.305C538.833 155.228 538.399 155.062 538.01 154.817C537.621 154.573 537.284 154.254 537.019 153.879C536.753 153.504 536.564 153.08 536.462 152.632C533.774 140.826 532.891 128.759 544.639 125.828C547.495 125.114 550.464 124.978 553.373 125.426C556.283 125.875 559.073 126.9 561.581 128.441C564.089 129.982 566.264 132.009 567.978 134.401C569.693 136.794 570.912 139.505 571.565 142.375Z" fill="#2F2E41"/>
<path d="M567.817 157.739C567.067 154.45 565.596 151.369 563.51 148.717C561.425 146.066 558.777 143.91 555.757 142.406C552.738 140.902 549.422 140.087 546.049 140.02C542.677 139.952 539.331 140.634 536.254 142.017C537.32 138.871 539.477 136.211 542.335 134.518L559.586 127.028C568.095 125.091 581.565 119.593 587.712 124.858C593.374 129.695 590.618 139.163 595.833 144.466C601.547 150.277 602.033 157.148 600.412 161.1C598.537 165.672 594.786 171.91 590.105 173.26C589.862 171.651 589.059 170.179 587.838 169.103C588.176 170.637 588.205 172.222 587.925 173.767L559.586 196.369C562.233 194.067 564.488 188.135 566.041 181.454C566.96 177.5 572.445 176.112 567.997 169.401C563.548 162.689 568.421 160.392 567.817 157.739Z" fill="#2F2E41"/>
<path d="M590.515 132.53L590.436 132.689C590.339 132.901 590.241 133.113 590.162 133.334L590.153 133.342C589.72 133.501 589.234 133.245 588.757 132.839C588.832 133.794 588.885 134.719 588.925 135.624L573.838 129.721C576.462 130.174 576.85 120.839 578.732 122.628C578.838 122.725 578.935 122.822 579.032 122.919C578.798 122.356 578.637 121.765 578.555 121.161C578.474 120.403 578.534 119.636 578.732 118.9C578.735 118.896 578.737 118.892 578.739 118.888C578.741 118.883 578.741 118.878 578.74 118.873C578.928 118.207 579.221 117.575 579.606 117.001C580.162 116.165 580.865 115.438 581.682 114.854C582.724 114.058 583.938 113.518 585.227 113.279C586.516 113.04 587.844 113.107 589.102 113.476C591.984 114.566 594.366 116.675 595.798 119.403C597.102 121.503 597.768 123.937 597.715 126.408C597.661 127.057 597.521 127.695 597.299 128.307C597.024 129.167 596.554 129.951 595.926 130.599C595.297 131.247 594.528 131.742 593.678 132.044C593.466 132.115 593.218 132.194 592.953 132.291C592.812 131.142 592.803 129.98 592.927 128.829C591.945 129.936 591.132 131.184 590.515 132.53Z" fill="#2F2E41"/>
<path d="M575.904 129.121C575.924 129.613 575.983 130.104 576.081 130.587C576.088 130.649 576.1 130.711 576.116 130.772C576.735 133.52 580.082 127.804 582.671 129.721C584.284 130.883 586.073 131.778 587.971 132.371C588.05 132.15 588.757 132.583 588.854 132.371C588.881 132.318 588.828 131.541 588.854 131.488C587.24 130.866 585.745 129.97 584.437 128.838C582.008 127.045 582.353 128.723 581.787 126.188C581.134 123.264 577.282 124.518 579.261 123.131L579.031 122.813C577.626 123.784 576.59 125.2 576.09 126.833C576.09 126.837 576.09 126.842 576.088 126.847C576.087 126.852 576.084 126.856 576.081 126.859C575.933 127.603 575.874 128.362 575.904 129.121Z" fill="#BFFB4F"/>
<path d="M572.121 262.908H588.537L588.725 261.119L589.369 254.839L589.628 252.37L590.738 241.626L591.221 236.947L592.285 226.632L592.643 223.161C592.871 220.862 592.187 218.566 590.737 216.767C589.288 214.968 587.191 213.811 584.896 213.544C584.563 213.506 584.229 213.485 583.894 213.481H583.867C583.46 213.486 583.054 213.513 582.651 213.562C580.583 213.859 578.687 214.879 577.301 216.443C575.991 217.909 575.216 219.776 575.1 221.739L575.091 221.873V221.882L574.313 232.653L573.91 238.164L573.696 241.214L573.078 249.704L572.819 253.282L572.255 261.119L572.121 262.908Z" fill="#FFB6B6"/>
<path d="M596.48 234.731C596.928 234.382 597.25 233.895 597.395 233.346C597.539 232.796 597.5 232.214 597.282 231.689C597.026 231.037 596.98 230.32 597.15 229.64C597.184 229.509 597.227 229.38 597.279 229.255C597.607 228.506 597.749 227.689 597.693 226.874C597.638 226.058 597.386 225.268 596.96 224.571C595.524 222.296 595.111 219.085 595.119 216.272C595.129 213.193 595.306 210.07 594.578 207.079C593.529 202.764 590.209 198.604 584.786 199.669C582.487 200.157 580.427 201.423 578.952 203.254C575.818 207.04 575.13 212.028 574.518 216.805L573.837 214.795C573.259 220.026 571.631 225.085 569.051 229.671C570.237 229.599 570.85 231.262 570.329 232.33C569.807 233.398 568.676 233.997 567.688 234.657C566.441 235.49 565.195 236.806 566.045 238.442C566.259 238.828 566.551 239.165 566.902 239.432C567.252 239.7 567.655 239.892 568.083 239.996C576.139 242.145 584.553 242.605 592.795 241.346C594.625 241.065 596.609 240.602 597.737 239.133C598.864 237.664 598.319 234.948 596.48 234.731Z" fill="#BFFB4F"/>
<path d="M422.293 253.407C422.293 255.927 423.294 258.344 425.076 260.125C426.857 261.907 429.274 262.908 431.794 262.908H451.26C453.78 262.908 456.196 261.907 457.978 260.125C459.76 258.344 460.761 255.927 460.761 253.407V246.164C460.761 244.631 460.39 243.12 459.679 241.762C458.969 240.403 457.941 239.237 456.682 238.362C455.423 237.487 453.971 236.93 452.45 236.738C450.929 236.546 449.384 236.725 447.947 237.26L428.481 244.503C426.664 245.179 425.098 246.394 423.992 247.986C422.886 249.577 422.293 251.469 422.293 253.407Z" fill="#CACACA"/>
<path d="M20.3395 261.119C19.928 261.119 19.5165 261.101 19.105 261.074V261.915L24.562 261.119H20.3395ZM98.4292 261.119V262.908H144.823V261.119H98.4292ZM343.827 261.119L375.04 262.908H394.963L405.59 262.327L409.276 262.13L417.623 261.682L422.776 261.405L426.363 261.208H426.372L428.027 261.119H343.827ZM599.701 261.119H598.019L598.117 262.908H599.701C600.175 262.908 600.64 262.89 601.097 262.854L601.177 261.736L601.231 261.047C600.722 261.098 600.212 261.122 599.701 261.119ZM20.3395 261.119C19.928 261.119 19.5165 261.101 19.105 261.074V261.915L24.562 261.119H20.3395ZM98.4292 261.119V262.908H144.823V261.119H98.4292ZM343.827 261.119L375.04 262.908H394.963L405.59 262.327L409.276 262.13L417.623 261.682L422.776 261.405L426.363 261.208H426.372L428.027 261.119H343.827ZM20.3395 261.119C19.928 261.119 19.5165 261.101 19.105 261.074V261.915L24.562 261.119H20.3395ZM35.5746 261.119V262.908H200.199V261.119H35.5746ZM343.827 261.119L375.04 262.908H394.963L405.59 262.327L409.276 262.13L417.623 261.682L422.776 261.405L426.363 261.208H426.372L428.027 261.119H343.827ZM599.701 261.119H529.6C529.502 261.709 529.412 262.309 529.332 262.908H599.701C600.175 262.908 600.64 262.89 601.097 262.854L601.177 261.736L601.231 261.047C600.722 261.098 600.212 261.122 599.701 261.119ZM20.3395 261.119C19.928 261.119 19.5165 261.101 19.105 261.074V261.915L24.562 261.119H20.3395ZM20.3395 261.119C19.928 261.119 19.5165 261.101 19.105 261.074V261.915L24.562 261.119H20.3395ZM20.3395 261.119C19.928 261.119 19.5165 261.101 19.105 261.074V261.915L24.562 261.119H20.3395ZM20.3395 261.119C19.928 261.119 19.5165 261.101 19.105 261.074V261.915L24.562 261.119H20.3395ZM20.3395 261.119C19.928 261.119 19.5165 261.101 19.105 261.074V261.915L24.562 261.119H20.3395ZM20.3395 261.119C19.928 261.119 19.5165 261.101 19.105 261.074V261.915L24.562 261.119H20.3395ZM20.3395 261.119C19.928 261.119 19.5165 261.101 19.105 261.074V261.915L24.562 261.119H20.3395ZM20.3395 261.119C19.928 261.119 19.5165 261.101 19.105 261.074C16.1611 260.881 13.3064 259.985 10.7802 258.461C8.25399 256.937 6.12978 254.83 4.58559 252.316H2.51012C3.89174 254.839 5.79111 257.042 8.08367 258.779C10.3762 260.517 13.0102 261.75 15.8128 262.398L19.105 261.915L24.562 261.119H20.3395ZM599.701 0.790039H20.3395C14.958 0.796521 9.79878 2.93719 5.99348 6.74249C2.18818 10.5478 0.0474983 15.707 0.0410162 21.0885V242.61C0.0399088 247.207 1.5997 251.668 4.46499 255.263C7.33027 258.858 11.3313 261.374 15.8128 262.398C16.8953 262.645 17.9965 262.801 19.105 262.863C19.5075 262.899 19.928 262.908 20.3395 262.908H599.701C600.175 262.908 600.64 262.89 601.097 262.854C601.911 262.805 602.721 262.7 603.521 262.541C604.111 262.434 604.702 262.291 605.274 262.13C606.145 261.883 606.997 261.575 607.824 261.208C609.69 260.396 611.419 259.301 612.95 257.961C613.075 257.862 613.201 257.755 613.326 257.639C615.014 256.113 616.432 254.314 617.521 252.316C619.144 249.338 619.996 246.001 619.999 242.61V21.0885C619.993 15.707 617.852 10.5478 614.047 6.74249C610.242 2.93719 605.082 0.796521 599.701 0.790039ZM618.21 242.61C618.21 243.954 618.063 245.295 617.772 246.608C617.43 248.187 616.876 249.713 616.126 251.144C615.429 252.49 614.566 253.743 613.558 254.875V254.883L613.549 254.892C613.478 254.973 613.397 255.062 613.317 255.143C611.108 257.556 608.294 259.335 605.167 260.296C604.881 260.385 604.594 260.466 604.308 260.546C604.183 260.582 604.058 260.609 603.923 260.636C603.038 260.842 602.138 260.98 601.231 261.047C600.722 261.098 600.212 261.122 599.701 261.119H20.3395C19.928 261.119 19.5165 261.101 19.105 261.074C14.4216 260.759 10.0327 258.677 6.82589 255.249C3.61903 251.821 1.83344 247.303 1.83018 242.61V141.851C1.83018 141.233 1.83017 140.625 1.83912 140.017C2.30546 103.395 17.185 68.4321 43.2529 42.7058C69.3208 16.9795 104.477 2.56248 141.102 2.57924H599.701C602.132 2.57876 604.539 3.05718 606.785 3.98718C609.031 4.91719 611.071 6.28056 612.79 7.9994C614.509 9.71824 615.872 11.7589 616.802 14.0048C617.732 16.2506 618.211 18.6577 618.21 21.0885L618.21 242.61ZM20.3395 261.119C19.928 261.119 19.5165 261.101 19.105 261.074V261.915L24.562 261.119H20.3395ZM20.3395 261.119C19.928 261.119 19.5165 261.101 19.105 261.074V261.915L24.562 261.119H20.3395ZM20.3395 261.119C19.928 261.119 19.5165 261.101 19.105 261.074V261.915L24.562 261.119H20.3395ZM20.3395 261.119C19.928 261.119 19.5165 261.101 19.105 261.074V261.915L24.562 261.119H20.3395ZM20.3395 261.119C19.928 261.119 19.5165 261.101 19.105 261.074V261.915L24.562 261.119H20.3395ZM20.3395 261.119C19.928 261.119 19.5165 261.101 19.105 261.074V261.915L24.562 261.119H20.3395ZM20.3395 261.119C19.928 261.119 19.5165 261.101 19.105 261.074V261.915L24.562 261.119H20.3395ZM20.3395 261.119C19.928 261.119 19.5165 261.101 19.105 261.074V261.915L24.562 261.119H20.3395ZM343.827 261.119L375.04 262.908H394.963L405.59 262.327L409.276 262.13L417.623 261.682L422.776 261.405L426.363 261.208H426.372L428.027 261.119H343.827ZM98.4292 261.119V262.908H144.823V261.119H98.4292ZM20.3395 261.119C19.928 261.119 19.5165 261.101 19.105 261.074V261.915L24.562 261.119H20.3395ZM343.827 261.119L375.04 262.908H394.963L405.59 262.327L409.276 262.13L417.623 261.682L422.776 261.405L426.363 261.208H426.372L428.027 261.119H343.827ZM98.4292 261.119V262.908H144.823V261.119H98.4292ZM20.3395 261.119C19.928 261.119 19.5165 261.101 19.105 261.074V261.915L24.562 261.119H20.3395ZM599.701 261.119H598.019L598.117 262.908H599.701C600.175 262.908 600.64 262.89 601.097 262.854L601.177 261.736L601.231 261.047C600.722 261.098 600.212 261.122 599.701 261.119ZM343.827 261.119L375.04 262.908H394.963L405.59 262.327L409.276 262.13L417.623 261.682L422.776 261.405L426.363 261.208H426.372L428.027 261.119H343.827ZM98.4292 261.119V262.908H144.823V261.119H98.4292Z" fill="#3F3D56"/>
</g>
<defs>
<clipPath id="clip0_12_1468">
<rect width="619.958" height="263.16" fill="white" transform="translate(0.0410156 0.791016)"/>
</clipPath>
</defs>
</svg>
