<svg width="325" height="40" viewBox="0 0 325 40" fill="none" xmlns="http://www.w3.org/2000/svg">
<path d="M17.3649 39.438C14.8921 39.438 12.8193 39.038 11.1466 38.238C9.51015 37.438 8.18284 36.3471 7.16463 34.9652C6.18279 33.547 5.47368 31.9288 5.0373 30.1105C4.60093 28.2923 4.34637 26.3831 4.27364 24.3831C4.27364 23.4012 4.25546 22.4012 4.2191 21.383C4.2191 20.3648 4.2191 19.3466 4.2191 18.3284C4.25546 17.2738 4.27364 16.2374 4.27364 15.2192C4.31001 13.2192 4.54638 11.31 4.98275 9.49178C5.45549 7.67355 6.18279 6.07351 7.16463 4.69165C8.18284 3.27343 9.51015 2.16431 11.1466 1.36429C12.8193 0.564268 14.8921 0.164257 17.3649 0.164257C19.8377 0.164257 21.8923 0.564268 23.5287 1.36429C25.2015 2.16431 26.5288 3.27343 27.5106 4.69165C28.5288 6.07351 29.2561 7.67355 29.6925 9.49178C30.1653 11.31 30.4198 13.2192 30.4562 15.2192C30.4925 16.2374 30.5107 17.2738 30.5107 18.3284C30.5107 19.3466 30.5107 20.3648 30.5107 21.383C30.5107 22.4012 30.4925 23.4012 30.4562 24.3831C30.4198 26.3831 30.1653 28.2923 29.6925 30.1105C29.2561 31.9288 28.5288 33.547 27.5106 34.9652C26.5288 36.3471 25.2015 37.438 23.5287 38.238C21.8923 39.038 19.8377 39.438 17.3649 39.438ZM17.3649 36.1652C20.6014 36.1652 23.0014 35.0925 24.5651 32.947C26.1288 30.8014 26.947 27.8559 27.0197 24.1104C27.0561 23.0558 27.0743 22.0739 27.0743 21.1648C27.0743 20.2193 27.0743 19.292 27.0743 18.3829C27.0743 17.4375 27.0561 16.4738 27.0197 15.4919C26.947 11.8191 26.1288 8.89177 24.5651 6.70989C23.0014 4.52801 20.6014 3.43707 17.3649 3.43707C14.1648 3.43707 11.7648 4.52801 10.1647 6.70989C8.60103 8.89177 7.78283 11.8191 7.7101 15.4919C7.7101 16.4738 7.69192 17.4375 7.65555 18.3829C7.65555 19.292 7.65555 20.2193 7.65555 21.1648C7.69192 22.0739 7.7101 23.0558 7.7101 24.1104C7.78283 27.8559 8.60103 30.8014 10.1647 32.947C11.7648 35.0925 14.1648 36.1652 17.3649 36.1652ZM38.2133 38.8926C37.8497 38.8926 37.5588 38.7835 37.3406 38.5653C37.1224 38.3471 37.0133 38.0562 37.0133 37.6925V36.8743C37.0133 36.5107 37.1042 36.1652 37.286 35.838C37.5042 35.4743 37.8679 35.0561 38.377 34.5834L52.5046 20.4557C53.8865 19.183 54.9411 18.0738 55.6684 17.1284C56.3957 16.1829 56.8866 15.2556 57.1411 14.3465C57.432 13.401 57.5775 12.3646 57.5775 11.2373C57.5775 8.80086 56.8684 6.89171 55.4502 5.50986C54.0683 4.128 52.0864 3.43707 49.5046 3.43707C47.8681 3.43707 46.4499 3.76435 45.2499 4.41892C44.0499 5.07348 43.1044 6.00078 42.4135 7.20081C41.7225 8.36448 41.268 9.72815 41.0498 11.2918C41.0134 11.7282 40.8498 12.0555 40.5589 12.2737C40.2679 12.4555 40.0134 12.5464 39.7952 12.5464H38.7043C38.3406 12.5464 38.0497 12.4555 37.8315 12.2737C37.6497 12.0555 37.5588 11.8009 37.5588 11.51C37.5951 10.2736 37.8497 9.00086 38.3224 7.69173C38.7952 6.34624 39.5043 5.10985 40.4498 3.98254C41.4316 2.85524 42.668 1.94612 44.159 1.25519C45.6499 0.527903 47.4318 0.164257 49.5046 0.164257C52.2683 0.164257 54.4865 0.691544 56.1593 1.74612C57.8684 2.80069 59.1048 4.16437 59.8685 5.83714C60.6321 7.50991 61.014 9.30996 61.014 11.2373C61.014 12.7282 60.7958 14.1101 60.3594 15.3829C59.923 16.6192 59.2685 17.8375 58.3957 19.0375C57.523 20.2012 56.4138 21.4012 55.0683 22.6376L42.3044 35.6198H60.5776C60.9776 35.6198 61.2867 35.7289 61.5049 35.947C61.7231 36.1652 61.8322 36.4743 61.8322 36.8743V37.6925C61.8322 38.0562 61.7231 38.3471 61.5049 38.5653C61.2867 38.7835 60.9776 38.8926 60.5776 38.8926H38.2133Z" fill="#65D80D"/>
<line x1="74.2031" y1="38.1671" x2="324.21" y2="38.1671" stroke="#65D80D" stroke-width="1.81823"/>
</svg>
