<svg width="597" height="281" viewBox="0 0 597 281" fill="none" xmlns="http://www.w3.org/2000/svg">
<g clip-path="url(#clip0_12_1532)">
<path d="M119.714 199.096C117.957 199.098 116.272 199.797 115.03 201.039C113.787 202.282 113.088 203.967 113.086 205.724V221.232C113.088 222.989 113.787 224.674 115.03 225.917C116.272 227.159 117.957 227.858 119.714 227.86H128.122C129.879 227.858 131.564 227.159 132.807 225.917C134.049 224.674 134.748 222.989 134.75 221.232V205.724C134.748 203.967 134.049 202.282 132.807 201.039C131.564 199.797 129.879 199.098 128.122 199.096H119.714Z" fill="#3F3D56"/>
<path d="M275.13 228.376H266.722C264.828 228.374 263.012 227.621 261.673 226.281C260.334 224.942 259.58 223.126 259.578 221.232V205.724C259.58 203.83 260.334 202.014 261.673 200.675C263.012 199.336 264.828 198.582 266.722 198.58H275.13C277.024 198.582 278.84 199.336 280.179 200.675C281.519 202.014 282.272 203.83 282.274 205.724V221.232C282.272 223.126 281.519 224.942 280.179 226.281C278.84 227.621 277.024 228.374 275.13 228.376Z" fill="#3F3D56"/>
<path d="M269.551 215.96H124.777C118.188 215.96 112.828 212.076 112.828 207.302V179.462L120.014 171.895H275.712L281.501 179.478V207.302C281.501 212.076 276.14 215.96 269.551 215.96Z" fill="#CCCCCC"/>
<path d="M275.038 185.821H120.84L119.273 161.793L120.271 159.335L126.067 145.071H268.768L276.605 161.268L275.038 185.821Z" fill="#CCCCCC"/>
<path d="M276.343 161.32L275.193 179.374H241.268V165.962L275.379 159.329L276.343 161.32Z" fill="white"/>
<path d="M154.094 165.963V179.374H120.678L119.533 161.836L120.508 159.433L154.094 165.963Z" fill="white"/>
<path d="M267.906 149.198H126.924L141.961 99.0755C142.574 97.0054 143.837 95.1876 145.563 93.8906C147.289 92.5936 149.386 91.8863 151.545 91.8732L244.913 90.9839C247.169 90.962 249.368 91.6957 251.158 93.0681C252.949 94.4406 254.229 96.3728 254.794 98.5569L267.906 149.198Z" fill="#CCCCCC"/>
<path d="M257.052 144.459L137.753 143.044C137.602 143.042 137.454 143.005 137.32 142.935C137.187 142.866 137.071 142.766 136.983 142.644C136.894 142.521 136.836 142.38 136.813 142.231C136.789 142.082 136.801 141.929 136.847 141.786L148.283 106.103C148.346 105.909 148.468 105.739 148.633 105.619C148.798 105.498 148.997 105.434 149.201 105.434H245.156C245.36 105.434 245.559 105.498 245.724 105.619C245.889 105.739 246.012 105.909 246.074 106.103L257.982 143.2C258.028 143.346 258.04 143.5 258.015 143.651C257.99 143.802 257.93 143.944 257.839 144.067C257.749 144.19 257.63 144.29 257.493 144.358C257.356 144.426 257.205 144.46 257.052 144.459Z" fill="white"/>
<path d="M213.492 97.1011H181.336C181.065 97.1011 180.82 96.8344 180.695 96.4047C180.571 95.9648 180.589 95.4969 180.746 95.0678L183.398 88.3622C183.533 88.0204 183.754 87.8164 183.988 87.8164H210.84C211.075 87.8164 211.295 88.0204 211.43 88.3622L214.082 95.0678C214.24 95.4969 214.258 95.9648 214.133 96.4047C214.009 96.8344 213.763 97.1011 213.492 97.1011Z" fill="#BFFB4F"/>
<path d="M127.014 148.167H105.865V143.519C105.867 142.016 106.465 140.575 107.527 139.513C108.59 138.45 110.03 137.852 111.533 137.851H127.014V148.167Z" fill="#CCCCCC"/>
<path d="M288.981 148.167H267.832V137.851H283.313C284.815 137.852 286.256 138.45 287.319 139.513C288.381 140.575 288.979 142.016 288.981 143.519V148.167Z" fill="#CCCCCC"/>
<path d="M103.39 220.63L0 257.771L0.438896 258.992L103.829 221.851L103.39 220.63Z" fill="#3F3D56"/>
<path d="M290.802 220.632L290.363 221.854L393.756 258.985L394.195 257.763L290.802 220.632Z" fill="#3F3D56"/>
<path d="M203.167 247.562H196.979V239.569H203.167V247.562ZM203.167 231.575H196.979V223.582H203.167V231.575Z" fill="#E6E6E6"/>
<path d="M203.167 280.673H196.979V272.679H203.167V280.673ZM203.167 264.686H196.979V256.692H203.167V264.686Z" fill="#E6E6E6"/>
<path d="M475.087 253.061H468.271L465.027 226.771H475.087V253.061Z" fill="#FFB8B8"/>
<path d="M476.825 259.668H454.848V259.39C454.85 257.122 455.752 254.948 457.356 253.344C458.96 251.741 461.134 250.838 463.402 250.836H476.825L476.825 259.668Z" fill="#2F2E41"/>
<path d="M562.979 240.145L557.136 243.656L540.816 222.791L549.439 217.61L562.979 240.145Z" fill="#FFB8B8"/>
<path d="M549.035 256.232L548.892 255.994C547.726 254.048 547.38 251.72 547.928 249.519C548.477 247.319 549.876 245.426 551.819 244.256L563.325 237.343L567.873 244.914L549.035 256.232Z" fill="#2F2E41"/>
<path d="M476.858 247.636L476.741 247.635C473.425 247.625 470.113 247.434 466.818 247.064C465.562 246.94 464.199 246.806 462.558 246.671L462.502 246.66C461.382 246.328 461.351 235.824 461.825 199.873C462.069 181.458 462.344 160.588 462.016 147.296L462.013 147.165L462.111 147.079C474.27 136.504 489.884 132.54 506.078 135.917L506.198 135.942L506.26 136.048C512.959 147.382 523.073 163.709 532.854 179.498C555.308 215.742 561.73 226.401 561.026 227.206L560.941 227.271C559.408 228.038 558.257 228.628 557.278 229.13C554.001 230.81 552.644 231.506 545.356 234.507L545.176 234.581L545.045 234.437C522.262 209.473 503.303 181.586 491.576 155.806C490.206 164.607 488.542 176.099 486.785 188.242C481.731 223.16 478.316 246.152 476.941 247.552L476.858 247.636Z" fill="#2F2E41"/>
<path d="M512.243 35.8141C514.538 26.3404 516.482 15.6551 512.155 6.92977C509.152 0.875683 498.045 -1.16307 491.678 1.01798C485.311 3.19903 480.708 9.11638 478.683 15.5682C476.659 22.0199 476.894 28.9722 477.777 35.6793C489.486 35.4543 501.196 35.2294 512.243 35.8141Z" fill="#2F2E41"/>
<path d="M492.483 35.8115C500.024 35.8115 506.138 29.6981 506.138 22.1567C506.138 14.6154 500.024 8.50195 492.483 8.50195C484.942 8.50195 478.828 14.6154 478.828 22.1567C478.828 29.6981 484.942 35.8115 492.483 35.8115Z" fill="#FFB8B8"/>
<path d="M509.176 19.3438C509.219 17.0456 508.8 14.7622 507.944 12.6292C507.087 10.4962 505.811 8.55706 504.19 6.92711C502.569 5.29716 500.637 4.00961 498.509 3.14097C496.381 2.27234 494.1 1.84033 491.802 1.87063C489.503 1.90093 487.235 2.39292 485.13 3.31735C483.026 4.24179 481.128 5.57981 479.551 7.25192C477.974 8.92403 476.749 10.8961 475.949 13.051C475.149 15.2058 474.791 17.4995 474.895 19.7957C486.582 19.8205 498.269 19.8453 509.176 19.3438Z" fill="#2F2E41"/>
<path d="M482.997 149.982C496.582 149.921 510.078 152.181 522.902 156.663C523.348 135.139 515.938 113.574 502.54 97.4423L502.439 97.3218L502.491 97.1739C506.069 86.8331 509.769 76.1446 513.074 65.509L513.024 65.3304C510.706 57.0891 505.73 48.7612 497.813 39.8703C496.954 38.9805 495.789 38.4506 494.553 38.3881C493.318 38.3255 492.106 38.735 491.161 39.5334C477.088 52.4343 469.436 71.764 471.192 89.9796L471.197 90.0331L471.182 90.0849C464.982 111.088 462.731 121.876 460.746 131.394C459.297 138.337 458.043 144.349 455.525 152.939C464.551 150.976 473.761 149.984 482.997 149.982Z" fill="#3F3D56"/>
<path opacity="0.1" d="M502.998 83.5869L482.83 127.494L471.309 115.832L502.998 83.5869Z" fill="black"/>
<path d="M457.729 107.975L459.135 110.708C459.148 110.733 459.151 110.762 459.142 110.789C459.133 110.816 459.114 110.839 459.089 110.852L459.021 110.887L466.346 125.12C466.549 125.514 466.587 125.972 466.452 126.394C466.317 126.816 466.02 127.167 465.626 127.37L456.732 131.947C456.537 132.047 456.324 132.108 456.106 132.126C455.887 132.144 455.667 132.119 455.458 132.052C455.249 131.985 455.056 131.878 454.889 131.736C454.721 131.594 454.583 131.421 454.483 131.226L447.415 117.492L447.366 117.517C447.348 117.526 447.327 117.528 447.308 117.522C447.289 117.516 447.273 117.502 447.264 117.485L446.464 115.93C446.459 115.921 446.456 115.911 446.455 115.901C446.455 115.891 446.456 115.881 446.459 115.872C446.462 115.862 446.467 115.854 446.473 115.846C446.48 115.838 446.487 115.832 446.496 115.828L446.545 115.802L446.244 115.217L446.194 115.242C446.176 115.252 446.154 115.253 446.134 115.247C446.114 115.24 446.097 115.226 446.088 115.208L445.298 113.674C445.289 113.655 445.287 113.633 445.293 113.613C445.3 113.594 445.314 113.577 445.332 113.567L445.382 113.542L444.97 112.742L444.92 112.768C444.904 112.777 444.884 112.778 444.867 112.773C444.849 112.767 444.834 112.755 444.826 112.738L444.395 111.901C444.386 111.884 444.385 111.865 444.39 111.847C444.396 111.829 444.408 111.815 444.425 111.806L444.475 111.78L443.603 110.085C443.4 109.692 443.362 109.233 443.498 108.812C443.633 108.39 443.93 108.039 444.324 107.837L453.217 103.259C453.611 103.057 454.069 103.019 454.491 103.154C454.913 103.289 455.264 103.586 455.466 103.98L457.517 107.964L457.585 107.929C457.61 107.916 457.639 107.914 457.666 107.923C457.694 107.931 457.716 107.95 457.729 107.975Z" fill="#3F3D56"/>
<path d="M454.906 104.638L465.698 125.608C465.827 125.858 465.851 126.149 465.765 126.416C465.679 126.684 465.49 126.906 465.241 127.035L456.727 131.416C456.478 131.545 456.188 131.57 455.921 131.485C455.653 131.399 455.431 131.212 455.302 130.962L455.3 130.959L444.508 109.99C444.444 109.866 444.406 109.731 444.394 109.592C444.383 109.454 444.399 109.314 444.441 109.181C444.484 109.049 444.552 108.926 444.642 108.82C444.732 108.714 444.842 108.626 444.965 108.563L446.24 107.907L446.324 108.07C446.376 108.172 446.448 108.263 446.536 108.337C446.623 108.411 446.724 108.467 446.833 108.502C446.942 108.537 447.057 108.55 447.172 108.541C447.286 108.531 447.397 108.499 447.499 108.447L451.829 106.218C452.034 106.113 452.19 105.929 452.26 105.709C452.331 105.489 452.311 105.249 452.205 105.043L452.121 104.88L453.479 104.181C453.729 104.052 454.019 104.028 454.287 104.114C454.554 104.2 454.777 104.388 454.906 104.638L454.906 104.638Z" fill="#BFFB4F"/>
<path d="M458.034 130.258C458.849 130.201 459.642 129.966 460.357 129.57C461.071 129.173 461.691 128.625 462.171 127.964C462.651 127.302 462.98 126.543 463.135 125.741C463.29 124.938 463.267 124.112 463.068 123.319L479.686 112.431L470.208 108.337L455.881 119.304C454.571 119.726 453.462 120.615 452.764 121.8C452.066 122.986 451.826 124.387 452.092 125.737C452.357 127.087 453.109 128.293 454.204 129.126C455.299 129.959 456.662 130.362 458.034 130.258Z" fill="#FFB8B8"/>
<path d="M474.025 122.414L473.815 122.266C469.86 119.355 465.47 116.345 461.224 113.434L460.969 113.259L461.17 113.024C470.232 102.421 479.305 91.3453 488.08 80.6313C488.073 80.6142 488.068 80.6017 488.063 80.5927L488.146 80.5506L488.181 80.508L488.2 80.5235L488.253 80.4966L488.014 80.5151L485.309 59.3042C482.866 55.9714 482.398 49.3546 485.6 44.7357C488.916 39.9509 495.932 38.3495 500.614 41.3074C501.841 42.1309 502.867 43.2197 503.615 44.4933C504.364 45.7669 504.817 47.1925 504.94 48.6648C505.114 49.9764 504.993 51.3104 504.586 52.5692C504.178 53.828 503.495 54.9799 502.585 55.9408C503.735 67.166 503.779 77.1995 503.821 86.9047L503.822 87.0017L503.762 87.0815C494.407 98.9666 484.131 110.788 474.193 122.221L474.025 122.414Z" fill="#3F3D56"/>
<path d="M197.236 64.5095C214.192 64.5095 227.938 50.7635 227.938 33.807C227.938 16.8505 214.192 3.10449 197.236 3.10449C180.279 3.10449 166.533 16.8505 166.533 33.807C166.533 50.7635 180.279 64.5095 197.236 64.5095Z" fill="#BFFB4F"/>
<path d="M194.31 46.7663L185.121 34.9508L190.465 30.7944L194.816 36.3889L209.515 20.8721L214.43 25.5291L194.31 46.7663Z" fill="white"/>
<path d="M595.73 260.514H440.561C440.389 260.514 440.224 260.446 440.102 260.324C439.981 260.202 439.912 260.037 439.912 259.865C439.912 259.693 439.981 259.528 440.102 259.406C440.224 259.284 440.389 259.216 440.561 259.216H595.73C595.902 259.216 596.067 259.284 596.189 259.406C596.31 259.528 596.379 259.693 596.379 259.865C596.379 260.037 596.31 260.202 596.189 260.324C596.067 260.446 595.902 260.514 595.73 260.514Z" fill="#3F3D56"/>
</g>
<defs>
<clipPath id="clip0_12_1532">
<rect width="596.38" height="280.504" fill="white" transform="translate(0 0.168945)"/>
</clipPath>
</defs>
</svg>
